<?xml version="1.0" encoding="utf-8"?>
<!-- Generator: Adobe Illustrator 16.0.0, SVG Export Plug-In . SVG Version: 6.00 Build 0)  -->
<!DOCTYPE svg PUBLIC "-//W3C//DTD SVG 1.1//EN" "http://www.w3.org/Graphics/SVG/1.1/DTD/svg11.dtd">
<svg version="1.1" id="图层_1" xmlns="http://www.w3.org/2000/svg" xmlns:xlink="http://www.w3.org/1999/xlink" x="0px" y="0px"
	 width="240.305px" height="44px" viewBox="0 0 240.305 44" enable-background="new 0 0 240.305 44" xml:space="preserve">
<g>
	<path fill="#ED6C00" d="M43.512,30.324L27.779,14.535l-0.072-0.199c0-0.158,0.119-0.287,0.277-0.287h13.693
		c1.295,0,2.344,1.021,2.344,2.313l-0.01,13.75c0,0.164-0.121,0.302-0.287,0.302L43.512,30.324"/>
	<path fill="#002F75" d="M43.971,34.576V44H17.814C5.352,44,0.008,35.961,0.008,26.175L0,0.035h9.412L9.424,26.1
		c0,5.436,2.543,8.477,8.463,8.477H43.971z"/>
	<path fill="#002F75" d="M22.6,20.829c0.039,0.319,0.303,0.581,0.623,0.617h7.5l8.34,8.417c0.068,0.049,0.117,0.127,0.117,0.226
		c0,0.161-0.127,0.28-0.289,0.28H17.924c-2.584,0-4.271-1.688-4.271-4.27L13.648,7.677C13.648,2.506,17.4,0,22.561,0l20.268,0.008
		v8.93H23.246c-0.332,0.033-0.594,0.289-0.646,0.623V20.829z"/>
	<path fill="#002F75" d="M171.842,18.35c2.129,0,3.795,3.061,3.795,6.955c0,3.896-1.666,6.947-3.795,6.947
		c-2.137,0-3.797-3.051-3.797-6.947C168.045,21.41,169.705,18.35,171.842,18.35 M240.295,23.055l0.01,11.187
		c0,1.269-1.039,2.299-2.305,2.299l-11.768,0.015c-6.625,0-11.398-3.898-11.398-11.448c0-7.331,3.232-11.216,10.123-11.216
		l15.348-0.002v4.945h-15.701v13.072h6.457l0.006-4.19h-3.219l-0.01-4.661H240.295z M155.543,20.093l-13.623,0.011v5.305h3.807
		v5.398h-7.613v-16.09l17.41,0.002l0.02-5.611h-17.43c-7.834,0-11.504,6.093-11.504,14.433c0,8.577,3.967,13,11.504,13h14.854
		c1.432,0,2.58-1.182,2.58-2.617L155.543,20.093z M171.596,36.908c8.611,0,14.027-4.593,14.027-11.806
		c0-6.01-4.588-11.355-13.605-11.355c-8.58,0-13.926,5.183-13.926,11.714c0,6.226,4.777,11.447,13.463,11.447H171.596z
		 M114.229,31.902h-4.219L110,14.107h-9.83v12.229c0,7.201,4.041,10.572,11.709,10.572c7.885,0,12.182-3.5,12.182-10.427V14.107
		h-9.82L114.229,31.902z M96.861,36.54H86.51V14.107h10.352V36.54z M63.938,36.54c-1.43,0-2.59-1.177-2.59-2.601V9.355h11.539
		v21.461h11.098L83.98,36.54H63.938z M197.01,14.107c0,0,5.535,8.529,6.068,9.446l0.004-9.446h9.201V36.54h-7.941
		c0,0-6.205-9.758-6.959-11.006V36.54h-9.221V14.107H197.01z"/>
</g>
</svg>
